<svg xmlns="http://www.w3.org/2000/svg" viewBox="0 0 600 300" role="img" aria-labelledby="t d"><title id="t">Pipedrive y HubSpot</title><desc id="d">Etapas de un embudo comercial en un panel CRM</desc><defs><linearGradient id="bg" x2="1" y2="1"><stop stop-color="#063c3b"/><stop offset="1" stop-color="#13a884"/></linearGradient></defs><rect width="600" height="300" rx="24" fill="url(#bg)"/><circle cx="510" cy="10" r="145" fill="#fff" opacity=".06"/><rect x="70" y="65" width="460" height="175" rx="18" fill="#fff" opacity=".12" stroke="#fff" stroke-opacity=".35"/><text x="95" y="98" fill="#fff" font-family="Arial,sans-serif" font-size="14" font-weight="700" letter-spacing="2">EMBUDO COMERCIAL</text><g><rect x="97" y="125" width="82" height="82" rx="12" fill="#c7f5e7"/><rect x="198" y="125" width="82" height="82" rx="12" fill="#91ead0"/><rect x="299" y="125" width="82" height="82" rx="12" fill="#5bd8b6"/><rect x="400" y="125" width="82" height="82" rx="12" fill="#b9a7ff"/><circle cx="138" cy="151" r="12" fill="#087c66"/><circle cx="239" cy="151" r="12" fill="#087c66"/><circle cx="340" cy="151" r="12" fill="#087c66"/><circle cx="441" cy="151" r="12" fill="#6853c8"/><path d="M119 186h38m62 0h38m62 0h38m62 0h38" stroke="#087c66" stroke-width="6" stroke-linecap="round" opacity=".65"/></g><path d="M179 166h15m86 0h15m86 0h15" stroke="#fff" stroke-width="3" stroke-dasharray="3 5"/><text x="97" y="224" fill="#e8fff8" font-family="Arial,sans-serif" font-size="11">LEAD · CONTACTO · OPORTUNIDAD · CIERRE</text></svg>
